<svg xmlns="http://www.w3.org/2000/svg" xmlns:xlink="http://www.w3.org/1999/xlink">

    <symbol id="arrow-right" viewBox="0 0 38 16">
        <g>
            <path d="M0 6.5H35V8.5H0V6.5Z" />
            <path d="M28.7071 14.4854C28.3166 14.0949 28.3166 13.4617 28.7071 13.0712L35.5943 6.18399L36.3014 6.8911C36.692 7.28162 36.692 7.91479 36.3014 8.30531L30.1213 14.4854C29.7308 14.876 29.0976 14.876 28.7071 14.4854V14.4854Z" />
            <path d="M28.707 0.707107C29.0975 0.316583 29.7306 0.316583 30.1212 0.707107L36.3013 6.88722C36.6918 7.27774 36.6918 7.91091 36.3013 8.30143L35.5942 9.00854L28.707 2.12132C28.3164 1.7308 28.3164 1.09763 28.707 0.707107V0.707107Z" />
        </g>
    </symbol>

    <symbol id="arrow-dropdown" viewBox="0 0 12 8">
        <g>
            <path d="M6.22659e-05 0.846479C0.0653464 0.70264 0.108296 0.54211 0.200332 0.418153C0.593019 -0.109583 1.28464 -0.140511 1.76789 0.340834C2.69168 1.26131 3.61384 2.18317 4.53436 3.10642L5.90091 4.47265C5.93085 4.50235 5.96202 4.53057 6.02362 4.58973C6.05209 4.54457 6.07099 4.49866 6.10339 4.467C7.47223 3.09619 8.84131 1.7262 10.2106 0.357035C10.4755 0.0916933 10.7832 -0.0489548 11.1602 0.0190374C11.5443 0.0885023 11.8116 0.315552 11.9389 0.681777C12.0788 1.08531 11.9723 1.4427 11.6808 1.74584C11.5183 1.91472 11.3499 2.0777 11.1845 2.24339C9.76805 3.65952 8.35233 5.07615 6.93735 6.49326C6.71205 6.71933 6.48478 6.93239 6.16254 7.00873L5.8344 7.00873C5.5119 6.93386 5.28488 6.72031 5.05982 6.49326C3.55289 4.98075 2.04318 3.47109 0.530679 1.9643C0.299485 1.73406 0.0776178 1.50382 6.22516e-05 1.17343L6.22659e-05 0.846479Z" />
        </g>
    </symbol>

    <symbol id="checked" viewBox="0 0 8 8">
        <g>
            <path d="M4.10449 6.77686L6.27246 0.0751953H7.65674L4.80762 8H3.89941L4.10449 6.77686ZM2.29541 0.0751953L4.5293 6.81348L4.68311 8H3.7749L0.903809 0.0751953H2.29541Z" />
        </g>
    </symbol>

    <symbol id="home" viewBox="0 0 17 17">
        <g>
            <path d="M0 5.33391L7.7045 1.48166C7.77039 1.44876 7.84302 1.43164 7.91667 1.43164C7.99031 1.43164 8.06294 1.44876 8.12883 1.48166L15.8333 5.33391M14.25 7.70891V14.0422C14.25 14.4622 14.0832 14.8649 13.7863 15.1618C13.4893 15.4588 13.0866 15.6256 12.6667 15.6256H3.16667C2.74674 15.6256 2.34401 15.4588 2.04708 15.1618C1.75015 14.8649 1.58333 14.4622 1.58333 14.0422V7.70891" stroke-width="1.1875" stroke-linecap="round" stroke-linejoin="round"/>
        </g>
    </symbol>

    <symbol id="arrow-down" viewBox="0 0 16 19">
        <g>
            <path d="M7.29289 18.7071C7.68342 19.0976 8.31658 19.0976 8.70711 18.7071L15.0711 12.3431C15.4616 11.9526 15.4616 11.3195 15.0711 10.9289C14.6805 10.5384 14.0474 10.5384 13.6569 10.9289L8 16.5858L2.34315 10.9289C1.95262 10.5384 1.31946 10.5384 0.928932 10.9289C0.538407 11.3195 0.538407 11.9526 0.928932 12.3431L7.29289 18.7071ZM7 -4.37114e-08L7 18L9 18L9 4.37114e-08L7 -4.37114e-08Z"/>
        </g>
    </symbol>

    <symbol id="slider-arrow-right" viewBox="0 0 111 16">
        <g>
            <path d="M110.707 8.70711C111.098 8.31658 111.098 7.68342 110.707 7.29289L104.343 0.928932C103.953 0.538408 103.319 0.538408 102.929 0.928932C102.538 1.31946 102.538 1.95262 102.929 2.34315L108.586 8L102.929 13.6569C102.538 14.0474 102.538 14.6805 102.929 15.0711C103.319 15.4616 103.953 15.4616 104.343 15.0711L110.707 8.70711ZM0 9H110V7H0V9Z" />
        </g>
    </symbol>

    <symbol id="slider-arrow-left" viewBox="0 0 111 16">
        <g>
            <path d="M0.292892 8.70711C-0.0976334 8.31658 -0.0976334 7.68342 0.292892 7.29289L6.65685 0.928932C7.04738 0.538408 7.68054 0.538408 8.07107 0.928932C8.46159 1.31946 8.46159 1.95262 8.07107 2.34315L2.41422 8L8.07107 13.6569C8.46159 14.0474 8.46159 14.6805 8.07107 15.0711C7.68054 15.4616 7.04738 15.4616 6.65685 15.0711L0.292892 8.70711ZM111 9H1V7H111V9Z" />
        </g>
    </symbol>

    <symbol id="testimonial" viewBox="0 0 47 38">
        <g>
            <path d="M37.7327 32.1882H11.7714L2.72383 37.7362C2.43735 37.9118 2.1135 38 1.78894 38C1.48816 38 1.1872 37.9242 0.91539 37.7722C0.350487 37.456 0.000701904 36.8593 0.000701904 36.2118V8.94118C0.000701904 4.01101 4.01171 0 8.94188 0H37.7327C42.6628 0 46.6738 4.01101 46.6738 8.94118V23.2471C46.6738 28.1772 42.6628 32.1882 37.7327 32.1882ZM43.0974 8.94118C43.0974 5.98308 40.6908 3.57647 37.7327 3.57647H8.94206C5.98396 3.57647 3.57735 5.98308 3.57735 8.94118V33.0176L10.3319 28.8755C10.6133 28.7031 10.9367 28.6118 11.2668 28.6118H37.7327C40.6908 28.6118 43.0974 26.2052 43.0974 23.2471V8.94118Z" />
            <path d="M34.8719 25.0356H11.6249C10.6374 25.0356 9.83663 24.235 9.83663 23.2474C9.83663 22.2598 10.6374 21.4592 11.6249 21.4592H34.8719C35.8594 21.4592 36.6602 22.2598 36.6602 23.2474C36.6602 24.235 35.8594 25.0356 34.8719 25.0356Z" />
            <path d="M34.8719 17.8826H11.6249C10.6374 17.8826 9.83663 17.082 9.83663 16.0943C9.83663 15.1067 10.6374 14.3061 11.6249 14.3061H34.8719C35.8594 14.3061 36.6602 15.1067 36.6602 16.0943C36.6602 17.082 35.8594 17.8826 34.8719 17.8826Z" />
            <path d="M32.1883 10.7295H11.6236C10.6362 10.7295 9.83539 9.92895 9.83539 8.94131C9.83539 7.95367 10.6362 7.15308 11.6236 7.15308H32.1883C33.1758 7.15308 33.9766 7.95367 33.9766 8.94131C33.9766 9.92895 33.1758 10.7295 32.1883 10.7295Z" />
        </g>
    </symbol>
    
</svg>
