<svg xmlns="http://www.w3.org/2000/svg">

    <symbol id="logo" viewBox="0 0 138 62" >
        <g>
            <path fill-rule="evenodd" clip-rule="evenodd" d="M95.9369 27.9342L107.307 16.8601L96.6026 16.8245L90.5685 22.5574L68.8531 0.836426L26.6823 43.0107H36.9776L68.8459 11.1343L100.718 43.0107H111.013L95.9369 27.9342ZM6.77531 53.5365H33.0332L68.8353 17.7076L104.655 53.5365H130.931L137.235 59.8819H100.704L82.2882 41.4653L62.8119 61.0712H52.5166L77.2082 36.3805L68.8353 28.0054L36.9883 59.8605V59.8854H0.470703L6.77531 53.5365ZM73.7942 59.6219H90.6219L82.2455 51.2433L73.7942 59.6219Z" />   
        </g>
    </symbol>

    <symbol id="logo-name" viewBox="0 0 235 160">
        <g>
            <path fill-rule="evenodd" clip-rule="evenodd" d="M162.582 45.6214L181.769 27.0123L163.705 26.9525L153.522 36.5861L116.878 0.0859375L45.7146 70.9562H63.0878L116.866 17.3906L170.649 70.9562H188.023L162.582 45.6214ZM12.1214 88.6438H56.4317L116.848 28.4364L177.294 88.6438H221.634L232.273 99.3066H170.625L139.549 68.3593L106.683 101.305H89.3099L130.977 59.8146L116.848 45.7411L63.1058 99.2707V99.3126H1.48242L12.1214 88.6438ZM125.216 98.8698H153.613L139.477 84.7903L125.216 98.8698Z" />
            <path fill-rule="evenodd" clip-rule="evenodd" d="M8.9474 155.729C8.38157 156.228 7.73565 156.628 7.03655 156.914C6.40749 157.147 5.74108 157.264 5.06987 157.26C4.11252 157.318 3.1677 157.019 2.42074 156.42C2.11716 156.152 1.87609 155.82 1.7143 155.449C1.55252 155.078 1.47391 154.677 1.48393 154.273C1.46809 153.786 1.57698 153.304 1.80034 152.872C2.02337 152.466 2.34024 152.119 2.72474 151.859C3.12511 151.602 3.56528 151.413 4.02759 151.298C4.551 151.177 5.08142 151.088 5.61583 151.032C6.69486 150.934 7.76114 150.727 8.7985 150.415C8.7985 150.175 8.7985 150.02 8.7985 149.958C8.82697 149.683 8.79635 149.405 8.70865 149.142C8.62095 148.879 8.47818 148.638 8.28977 148.434C7.70884 147.99 6.98587 147.771 6.25484 147.817C5.60307 147.769 4.95241 147.924 4.39363 148.261C3.92793 148.664 3.61483 149.212 3.50645 149.817L1.80034 149.576C1.92123 148.925 2.1908 148.311 2.58825 147.78C3.00252 147.287 3.54897 146.921 4.16408 146.724C4.93491 146.465 5.7451 146.339 6.55884 146.354C7.30175 146.331 8.04305 146.437 8.74887 146.669C9.22603 146.82 9.65421 147.095 9.98968 147.465C10.2764 147.824 10.4684 148.248 10.548 148.699C10.6196 149.239 10.6487 149.784 10.6349 150.329V152.68C10.608 153.721 10.6453 154.761 10.7466 155.797C10.8207 156.24 10.9675 156.667 11.1809 157.062H9.31964C9.1312 156.649 9.01376 156.206 8.97222 155.754L8.9474 155.729ZM8.81091 151.798C7.86469 152.127 6.88464 152.35 5.88881 152.464C5.35679 152.515 4.83348 152.633 4.33159 152.816C4.04582 152.931 3.8015 153.129 3.63053 153.384C3.4238 153.696 3.33873 154.073 3.39126 154.444C3.4438 154.814 3.63035 155.153 3.91592 155.396C4.36895 155.737 4.93095 155.904 5.49795 155.865C6.14669 155.881 6.7883 155.728 7.35916 155.421C7.87204 155.142 8.28425 154.71 8.53793 154.186C8.75791 153.625 8.85519 153.023 8.82332 152.421V151.804L8.81091 151.798ZM13.3523 146.576H19.4074V148.045H15.1328V157.038H13.3523V146.545V146.576ZM27.4665 153.649L29.3277 153.89C29.0884 154.87 28.5219 155.74 27.7208 156.359C26.8457 156.975 25.7896 157.286 24.7181 157.241C24.0393 157.284 23.3593 157.182 22.7236 156.941C22.088 156.7 21.5115 156.327 21.0329 155.846C20.0921 154.758 19.6157 153.348 19.7052 151.915C19.6104 150.43 20.0998 148.967 21.0701 147.835C21.5193 147.353 22.0678 146.974 22.6782 146.722C23.2885 146.471 23.9463 146.354 24.6064 146.379C25.2475 146.358 25.8856 146.475 26.4775 146.721C27.0694 146.967 27.6013 147.336 28.0372 147.804C28.9852 148.921 29.4631 150.358 29.3711 151.816C29.3711 151.915 29.3711 152.075 29.3711 152.285H21.5292C21.527 153.252 21.875 154.188 22.5094 154.921C22.7896 155.217 23.1294 155.452 23.5067 155.609C23.8841 155.767 24.2904 155.843 24.6995 155.834C25.2982 155.851 25.8855 155.668 26.3684 155.316C26.8919 154.891 27.2746 154.319 27.4665 153.674V153.649ZM21.6347 150.81H27.4851C27.4679 150.098 27.2343 149.407 26.815 148.829C26.5528 148.5 26.2173 148.237 25.8351 148.059C25.4529 147.881 25.0344 147.794 24.6126 147.804C24.2318 147.795 23.8531 147.863 23.4992 148.003C23.1453 148.143 22.8234 148.352 22.5529 148.619C21.9876 149.212 21.6665 149.994 21.6533 150.81H21.6347ZM31.5611 146.576H33.3479V150.927H38.3111V146.576H40.0917V157.069H38.2925V152.433H33.3293V157.069H31.5798V146.576H31.5611ZM41.8164 146.576H50.3284V148.045H46.9658V157.038H45.179V148.045H41.8164V146.576ZM58.6728 153.205L60.4099 153.452C60.2767 154.525 59.7564 155.514 58.9458 156.235C58.1382 156.916 57.1066 157.276 56.0485 157.248C55.4042 157.275 54.7617 157.163 54.1644 156.922C53.5671 156.68 53.029 156.313 52.5866 155.846C51.6487 154.726 51.18 153.29 51.2776 151.835C51.2543 150.819 51.4467 149.809 51.8422 148.872C52.182 148.067 52.7854 147.399 53.5545 146.977C54.3148 146.564 55.1694 146.351 56.0361 146.36C57.0544 146.303 58.0603 146.605 58.8775 147.212C59.6332 147.834 60.1286 148.715 60.2673 149.681L58.5487 149.94C58.4299 149.32 58.1095 148.756 57.6367 148.335C57.2123 147.979 56.6716 147.791 56.1167 147.804C55.7012 147.791 55.2878 147.869 54.9068 148.035C54.5257 148.201 54.1866 148.449 53.9143 148.761C53.3559 149.378 53.0768 150.409 53.0768 151.798C53.0768 153.186 53.3435 154.217 53.8833 154.853C54.1403 155.161 54.4641 155.407 54.8306 155.573C55.197 155.739 55.5965 155.82 55.9989 155.809C56.6425 155.838 57.2721 155.617 57.7546 155.192C58.2757 154.663 58.5921 153.968 58.648 153.23L58.6728 153.205ZM60.9993 146.576H69.5113V148.045H66.1487V157.038H64.3619V148.045H60.9993V146.576ZM71.2112 146.576H75.3121C76.0713 146.546 76.8307 146.632 77.5641 146.829C78.0594 147.008 78.4909 147.328 78.8049 147.749C79.1638 148.209 79.3522 148.778 79.3385 149.36C79.3486 149.813 79.2418 150.261 79.0283 150.662C78.8034 151.053 78.4779 151.377 78.0853 151.6C78.5883 151.765 79.0238 152.087 79.3261 152.52C79.6544 152.985 79.824 153.544 79.81 154.112C79.8116 154.536 79.7163 154.954 79.5315 155.336C79.3466 155.718 79.077 156.053 78.7429 156.316C77.9062 156.851 76.9187 157.104 75.9263 157.038H71.1988V146.545L71.2112 146.576ZM72.9917 150.989H74.853C75.3749 151.011 75.8975 150.971 76.4102 150.872C76.7024 150.784 76.9644 150.618 77.1671 150.391C77.2932 150.246 77.3875 150.076 77.4437 149.893C77.5 149.71 77.5169 149.517 77.4936 149.327C77.4702 149.136 77.4069 148.953 77.308 148.789C77.209 148.624 77.0764 148.483 76.9189 148.372C76.2834 148.11 75.5953 147.998 74.9088 148.045H72.9607V150.989H72.9917ZM72.9917 155.587H75.3369C76.0463 155.645 76.7589 155.524 77.409 155.235C77.6068 155.099 77.7652 154.913 77.8686 154.696C77.972 154.48 78.0167 154.24 77.9984 154.001C77.9976 153.663 77.8841 153.336 77.6758 153.069C77.4675 152.793 77.1653 152.602 76.8258 152.532C76.2708 152.437 75.7075 152.397 75.1446 152.415H72.9917V155.618V155.587ZM81.057 151.804C81.057 149.872 81.5968 148.446 82.6825 147.514C83.6029 146.735 84.7808 146.321 85.9892 146.354C86.6461 146.331 87.3006 146.445 87.9107 146.688C88.5207 146.932 89.0729 147.299 89.5317 147.767C90.0072 148.293 90.3732 148.908 90.6086 149.575C90.8439 150.242 90.9439 150.95 90.9028 151.656C90.953 152.747 90.7403 153.835 90.2824 154.828C89.8862 155.587 89.2703 156.211 88.5143 156.618C87.7353 157.036 86.8617 157.248 85.9768 157.235C85.3163 157.262 84.6575 157.151 84.0429 156.908C83.4284 156.666 82.8719 156.298 82.4095 155.828C81.4975 154.89 81.0446 153.544 81.0446 151.779L81.057 151.804ZM82.881 151.804C82.7994 152.877 83.1124 153.943 83.762 154.803C84.0357 155.124 84.3774 155.38 84.7626 155.552C85.1478 155.725 85.5667 155.811 85.9892 155.803C86.4097 155.811 86.8266 155.725 87.209 155.551C87.5914 155.377 87.9294 155.119 88.1979 154.797C88.8523 153.92 89.1653 152.837 89.0788 151.748C89.1574 150.696 88.8414 149.651 88.1917 148.817C87.9221 148.498 87.5846 148.243 87.2037 148.07C86.8227 147.897 86.4079 147.811 85.9892 147.817C85.5673 147.809 85.149 147.894 84.764 148.066C84.3789 148.238 84.0368 148.492 83.762 148.811C83.1134 149.669 82.8003 150.733 82.881 151.804ZM98.6269 146.57H100.445V150.921H105.408V146.57H107.188V157.062H105.408V152.427H100.445V157.062H98.6455V146.57H98.6269ZM116.985 153.643L118.846 153.884C118.607 154.864 118.04 155.734 117.239 156.353C116.363 156.968 115.308 157.278 114.236 157.235C113.562 157.269 112.889 157.16 112.26 156.917C111.632 156.673 111.062 156.3 110.588 155.822C109.635 154.73 109.151 153.309 109.242 151.866C109.148 150.382 109.635 148.92 110.601 147.786C111.051 147.305 111.599 146.926 112.209 146.675C112.82 146.423 113.477 146.306 114.137 146.329C114.779 146.308 115.418 146.424 116.011 146.67C116.605 146.916 117.137 147.286 117.574 147.755C118.522 148.871 119 150.309 118.908 151.767C118.908 151.866 118.908 152.026 118.908 152.236H111.066C111.064 153.203 111.412 154.139 112.046 154.871C112.326 155.168 112.666 155.403 113.044 155.56C113.421 155.717 113.827 155.794 114.236 155.785C114.835 155.801 115.422 155.619 115.905 155.266C116.425 154.838 116.807 154.267 117.003 153.625L116.985 153.643ZM111.147 150.804H117.003C116.983 150.092 116.75 149.402 116.333 148.823C116.07 148.495 115.735 148.232 115.353 148.054C114.971 147.876 114.552 147.789 114.131 147.798C113.75 147.789 113.371 147.857 113.017 147.997C112.663 148.137 112.342 148.346 112.071 148.613C111.499 149.203 111.17 149.985 111.147 150.804ZM122.029 146.57H129.362V155.618H130.497V160.031H129.039V157.069H120.775V160.031H119.317V155.618H120.248C121.489 153.923 122.088 150.919 122.047 146.607L122.029 146.57ZM123.511 148.039C123.395 151.446 122.874 153.972 121.948 155.618H127.6V148.045L123.511 148.039ZM132.458 146.57H136.558C137.316 146.54 138.073 146.626 138.804 146.823C139.298 147.004 139.729 147.324 140.045 147.743C140.402 148.203 140.588 148.772 140.572 149.354C140.583 149.807 140.476 150.255 140.262 150.656C140.038 151.045 139.715 151.368 139.325 151.594C139.827 151.761 140.262 152.083 140.566 152.514C140.894 152.979 141.064 153.537 141.05 154.106C141.052 154.53 140.956 154.948 140.772 155.33C140.587 155.712 140.317 156.047 139.983 156.309C139.149 156.844 138.163 157.098 137.173 157.031H132.445V146.539L132.458 146.57ZM134.238 150.983H136.13C136.65 151.005 137.171 150.965 137.681 150.866C137.976 150.78 138.24 150.613 138.444 150.384C138.662 150.15 138.78 149.84 138.773 149.52C138.793 149.293 138.748 149.065 138.646 148.861C138.543 148.658 138.385 148.486 138.19 148.366C137.557 148.104 136.871 147.992 136.186 148.039H134.257V150.983H134.238ZM134.238 155.581H136.577C137.286 155.639 137.999 155.518 138.649 155.229C138.848 155.093 139.007 154.908 139.11 154.691C139.214 154.474 139.258 154.234 139.239 153.995C139.238 153.657 139.124 153.33 138.916 153.063C138.709 152.786 138.406 152.595 138.066 152.526C137.513 152.43 136.952 152.391 136.391 152.409H134.257V155.618L134.238 155.581ZM143.253 146.576H145.033V154.557L149.996 146.576H151.913V157.069H150.133V149.107L145.17 157.038H143.253V146.545V146.576ZM160.928 146.576V151.088C161.366 151.136 161.807 151.024 162.169 150.773C162.6 150.198 162.937 149.559 163.168 148.878C163.397 148.174 163.773 147.527 164.272 146.977C164.726 146.673 165.271 146.532 165.817 146.576H166.468V148.039H165.984C165.665 147.996 165.34 148.071 165.072 148.249C164.808 148.649 164.599 149.083 164.452 149.539C164.283 150.047 164.036 150.525 163.72 150.958C163.429 151.271 163.073 151.517 162.677 151.68C163.447 151.886 164.197 152.596 164.929 153.81L166.828 157.038H164.867L162.963 153.797C162.712 153.307 162.369 152.869 161.952 152.507C161.647 152.296 161.281 152.187 160.909 152.199V157.038H159.085V152.199C158.722 152.189 158.366 152.295 158.068 152.501C157.645 152.864 157.299 153.307 157.05 153.804L155.133 157.038H153.179L155.127 153.797C155.867 152.563 156.622 151.853 157.392 151.668C156.963 151.497 156.584 151.223 156.287 150.872C155.9 150.226 155.582 149.541 155.338 148.829C155.263 148.561 155.099 148.326 154.873 148.162C154.631 148.066 154.37 148.024 154.11 148.039H153.582V146.57H153.83C154.318 146.548 154.806 146.59 155.282 146.694C155.579 146.787 155.841 146.968 156.033 147.212C156.388 147.728 156.677 148.286 156.895 148.872C157.129 149.535 157.461 150.159 157.882 150.724C158.231 150.977 158.661 151.094 159.091 151.051V146.539L160.928 146.576ZM168.125 146.576H169.905V154.557L174.868 146.576H176.754V157.069H174.974V149.107L170.011 157.038H168.094V146.545L168.125 146.576ZM179.503 146.576H182.245L185.024 154.945L188.126 146.576H190.67V157.069H188.852V148.613L185.75 157.038H184.162L181.234 148.212V157.038H179.49V146.545L179.503 146.576ZM192.699 151.804C192.699 149.872 193.245 148.446 194.324 147.514C195.246 146.737 196.423 146.324 197.631 146.354C198.288 146.331 198.943 146.444 199.553 146.688C200.163 146.931 200.715 147.299 201.174 147.767C201.651 148.292 202.019 148.906 202.256 149.574C202.492 150.241 202.592 150.949 202.551 151.656C202.598 152.747 202.385 153.834 201.93 154.828C201.53 155.587 200.913 156.21 200.156 156.618C199.377 157.037 198.504 157.249 197.619 157.235C196.958 157.262 196.299 157.151 195.685 156.908C195.07 156.666 194.514 156.298 194.051 155.828C193.139 154.89 192.686 153.544 192.686 151.779L192.699 151.804ZM194.523 151.804C194.441 152.877 194.754 153.943 195.404 154.803C195.677 155.124 196.019 155.38 196.404 155.552C196.79 155.725 197.208 155.811 197.631 155.803C198.052 155.811 198.47 155.724 198.853 155.55C199.236 155.376 199.576 155.119 199.846 154.797C200.498 153.919 200.81 152.837 200.727 151.748C200.801 150.696 200.485 149.653 199.84 148.817C199.569 148.498 199.23 148.243 198.848 148.07C198.466 147.897 198.051 147.811 197.631 147.817C197.201 147.806 196.775 147.891 196.383 148.066C195.991 148.242 195.644 148.502 195.367 148.829C194.718 149.688 194.405 150.751 194.486 151.822L194.523 151.804ZM211.497 153.205L213.24 153.452C213.11 154.53 212.59 155.524 211.776 156.248C210.969 156.928 209.937 157.289 208.879 157.26C208.235 157.287 207.592 157.176 206.995 156.934C206.398 156.692 205.859 156.326 205.417 155.859C204.479 154.738 204.01 153.302 204.108 151.847C204.086 150.832 204.276 149.823 204.666 148.885C205.01 148.08 205.615 147.413 206.385 146.99C207.145 146.575 208 146.363 208.867 146.373C209.869 146.329 210.855 146.632 211.658 147.231C212.415 147.853 212.913 148.733 213.054 149.699L211.336 149.958C211.222 149.349 210.913 148.793 210.455 148.372C210.03 148.017 209.49 147.828 208.935 147.842C208.521 147.829 208.11 147.909 207.731 148.074C207.352 148.24 207.015 148.487 206.745 148.798C206.186 149.415 205.901 150.446 205.901 151.835C205.901 153.223 206.174 154.254 206.714 154.89C206.97 155.199 207.294 155.445 207.66 155.611C208.027 155.777 208.427 155.857 208.829 155.846C209.473 155.875 210.103 155.654 210.585 155.229C211.104 154.699 211.418 154.004 211.472 153.267L211.497 153.205ZM213.83 146.576H222.342V148.045H218.942V157.038H217.161V148.045H213.799V146.576H213.83ZM224.042 146.576H225.822V154.557L230.785 146.576H232.696V157.069H230.916V149.107L225.952 157.038H224.035L224.042 146.576Z" />
            <path fill-rule="evenodd" clip-rule="evenodd" d="M7.28883 126.289H11.9481L9.68359 120.302L7.28883 126.289ZM2.72266 131.967V131.122H3.78355C3.91486 131.126 4.04569 131.103 4.16753 131.054C4.28938 131.006 4.39953 130.932 4.49081 130.838C4.7495 130.537 4.94749 130.189 5.07399 129.813L10.974 114.538H12.0039L18.4561 131.122H19.9761V131.967H11.6565V131.122H13.7472L12.2397 127.128H7.00965L5.87431 130.048C5.84262 130.122 5.82375 130.201 5.81847 130.282C5.81105 130.408 5.81105 130.533 5.81847 130.659C5.81755 130.729 5.83621 130.797 5.87237 130.857C5.90853 130.917 5.96076 130.966 6.02321 130.998C6.19376 131.091 6.38744 131.134 6.58157 131.122H8.12018V131.967H2.72266ZM21.1983 131.967V131.122H22.9665V115.692H21.1983V114.883H29.7599V115.667H27.3775V131.097H29.8591C31.0764 131.182 32.2789 130.79 33.2093 130.004C34.0117 129.26 34.6321 128.013 35.0705 126.264H35.8895L35.6972 131.967H21.1983ZM37.1799 131.967V131.122H38.9543V115.692H37.1799V114.883H45.7415V115.667H43.3654V131.097H45.847C47.0591 131.167 48.2513 130.767 49.1723 129.98C49.9747 129.235 50.5951 127.988 51.0336 126.24H51.8525L51.6602 131.942L37.1799 131.967ZM52.7707 131.967V131.122H54.8863V115.692H52.7707V114.883H61.4563V115.667H59.3221V131.097H61.4377V131.942L52.7707 131.967ZM66.7918 126.289H71.4511L69.1804 120.302L66.7918 126.289ZM62.2256 131.967V131.122H63.2803C63.4117 131.127 63.5426 131.104 63.6645 131.055C63.7864 131.006 63.8965 130.932 63.9876 130.838C64.2463 130.537 64.4443 130.189 64.5708 129.813L70.4708 114.538H71.5007L77.9529 131.122H79.4791V131.967H71.1533V131.122H73.244L71.7364 127.128H66.5064L65.3711 130.048C65.3394 130.122 65.3205 130.201 65.3153 130.282C65.3081 130.408 65.3081 130.533 65.3153 130.659C65.313 130.728 65.3305 130.797 65.3656 130.857C65.4007 130.917 65.452 130.966 65.5138 130.998C65.6846 131.091 65.8781 131.133 66.0722 131.122H67.6108V131.967H62.2256ZM80.298 131.967V131.122H81.6319C81.7598 131.135 81.8891 131.123 82.0119 131.084C82.1346 131.046 82.2481 130.983 82.3454 130.899C82.5091 130.638 82.5791 130.329 82.5439 130.023V116.568C82.5618 116.439 82.5517 116.308 82.5143 116.184C82.4768 116.059 82.4128 115.944 82.3267 115.846C82.0457 115.696 81.7257 115.634 81.4086 115.667H80.3601V114.883H87.3086L94.5425 124.721V116.939C94.5867 116.579 94.5009 116.216 94.3006 115.914C93.9988 115.71 93.6327 115.622 93.2707 115.667H92.1478V114.883H97.6445V115.667H96.6395C96.4813 115.65 96.3213 115.665 96.1689 115.711C96.0165 115.756 95.8749 115.832 95.7523 115.933C95.5541 116.229 95.4663 116.585 95.5041 116.939V132.368H94.7969L83.5614 117V130.19C83.5539 130.317 83.5726 130.444 83.6163 130.564C83.66 130.684 83.7279 130.794 83.8157 130.887C84.0163 131.059 84.2772 131.146 84.5416 131.128H86.074V131.973L80.298 131.967ZM114.327 126.838V131.967H113.477L112.311 131.017C111.788 131.477 111.175 131.825 110.512 132.041C109.764 132.279 108.983 132.396 108.198 132.387C107.083 132.4 105.979 132.168 104.965 131.708C103.921 131.206 102.99 130.499 102.229 129.628C101.436 128.78 100.806 127.795 100.368 126.721C99.95 125.67 99.7393 124.549 99.7477 123.419C99.737 122.299 99.9478 121.187 100.368 120.148C100.811 119.079 101.442 118.097 102.229 117.247C103.001 116.384 103.94 115.684 104.99 115.192C106.014 114.735 107.125 114.504 108.247 114.513C108.944 114.507 109.637 114.611 110.301 114.822C110.964 115.033 111.592 115.343 112.162 115.741L113.093 114.852H113.961L114.067 119.586H113.142C112.752 118.345 112.062 117.218 111.132 116.303C110.313 115.623 109.27 115.267 108.204 115.303C106.876 115.303 105.983 115.735 105.505 116.599C105.027 117.463 104.798 119.636 104.798 123.11C104.798 124.962 104.798 126.307 104.86 127.215C104.873 127.877 104.947 128.536 105.083 129.184C105.213 129.902 105.585 130.555 106.138 131.035C106.743 131.45 107.471 131.65 108.204 131.603C109.423 131.602 110.594 131.123 111.461 130.27C112.437 129.358 113.09 128.156 113.322 126.844L114.327 126.838ZM116.679 131.967V131.122H118.769V115.692H116.964V114.883H131.277L131.332 119.376H130.458C130.098 118.274 129.492 117.267 128.683 116.432C127.925 115.877 126.993 115.606 126.053 115.667H123.087V122.685H123.329H123.695C124.081 122.713 124.469 122.662 124.834 122.535C125.199 122.407 125.534 122.206 125.817 121.944C126.381 121.269 126.712 120.432 126.76 119.555H127.635V126.838H126.76C126.764 125.917 126.456 125.021 125.885 124.295C125.577 124.017 125.213 123.805 124.818 123.672C124.423 123.539 124.005 123.489 123.59 123.524H123.087V131.091H125.966C127.178 131.162 128.371 130.762 129.291 129.974C130.094 129.229 130.714 127.982 131.153 126.233H131.978L131.792 131.936L116.679 131.967ZM142.072 131.967V131.122H144.156V115.692H142.072V114.883H150.577V115.642H148.518V122.66H154.275V115.667H152.215V114.883H160.696V115.642H158.612V131.072H160.696V131.918H152.215V131.072H154.275V123.66H148.518V131.122H150.577V131.967H142.072ZM167.936 123.438C167.936 125.635 167.974 127.141 168.048 127.968C168.073 128.602 168.205 129.228 168.439 129.819C168.665 130.389 169.078 130.865 169.611 131.171C170.269 131.444 170.974 131.584 171.687 131.584C172.399 131.584 173.104 131.444 173.762 131.171C174.298 130.867 174.714 130.39 174.941 129.819C175.18 129.19 175.318 128.528 175.35 127.857C175.425 126.986 175.468 125.517 175.468 123.45C175.468 121.382 175.425 119.938 175.35 119.062C175.316 118.39 175.178 117.728 174.941 117.099C174.712 116.531 174.297 116.056 173.762 115.754C173.104 115.481 172.399 115.34 171.687 115.34C170.974 115.34 170.269 115.481 169.611 115.754C169.08 116.059 168.667 116.532 168.439 117.099C168.207 117.69 168.075 118.316 168.048 118.951C167.974 119.784 167.936 121.284 167.936 123.462V123.438ZM162.812 123.438C162.809 122.307 163.037 121.188 163.482 120.148C163.946 119.07 164.607 118.086 165.43 117.247C166.257 116.39 167.24 115.697 168.327 115.204C169.392 114.764 170.534 114.538 171.687 114.538C172.84 114.538 173.981 114.764 175.046 115.204C176.135 115.696 177.121 116.389 177.95 117.247C178.779 118.086 179.445 119.069 179.916 120.148C180.364 121.187 180.594 122.307 180.593 123.438C180.598 124.585 180.368 125.721 179.916 126.777C179.45 127.858 178.783 128.842 177.95 129.677C177.137 130.534 176.16 131.22 175.077 131.696C174.004 132.147 172.849 132.374 171.684 132.362C170.526 132.375 169.379 132.148 168.315 131.696C167.231 131.215 166.251 130.53 165.43 129.677C164.602 128.841 163.941 127.857 163.482 126.777C163.038 125.719 162.81 124.584 162.812 123.438ZM184.662 127.344V115.667H182.652V114.883H191.239V115.667H188.993V127.258C188.993 128.702 189.278 129.727 189.837 130.418C190.179 130.77 190.596 131.042 191.058 131.214C191.519 131.386 192.013 131.453 192.504 131.412C193.101 131.419 193.694 131.327 194.26 131.14C194.767 130.972 195.232 130.698 195.625 130.338C196.052 129.952 196.369 129.46 196.543 128.912C196.768 127.95 196.86 126.961 196.816 125.974V117.019C196.864 116.634 196.786 116.244 196.593 115.908C196.45 115.747 196.09 115.667 195.526 115.667H194.676V114.883H200.098V115.667H199.254C198.836 115.62 198.414 115.716 198.057 115.939C197.825 116.258 197.723 116.653 197.772 117.043V125.993C197.799 126.918 197.737 127.844 197.585 128.758C197.483 129.283 197.272 129.781 196.965 130.22C196.432 130.956 195.695 131.52 194.843 131.844C193.762 132.23 192.617 132.412 191.468 132.381C189.241 132.381 187.547 131.949 186.387 131.097C185.813 130.664 185.355 130.096 185.053 129.445C184.751 128.794 184.615 128.079 184.656 127.363L184.662 127.344ZM201.959 132.165V127.153H202.964C203.286 128.415 203.962 129.56 204.912 130.455C205.798 131.205 206.932 131.603 208.095 131.572C209.104 131.609 210.092 131.29 210.887 130.671C211.24 130.404 211.524 130.058 211.717 129.661C211.91 129.265 212.006 128.828 211.997 128.387C212.033 127.96 211.941 127.533 211.735 127.156C211.529 126.78 211.217 126.472 210.837 126.27C209.943 125.806 208.983 125.481 207.99 125.308C207.462 125.19 207.065 125.092 206.786 125.024C205.426 124.761 204.17 124.118 203.163 123.172C202.38 122.266 201.978 121.094 202.04 119.901C202.01 119.185 202.128 118.471 202.387 117.803C202.645 117.134 203.038 116.525 203.541 116.013C204.062 115.514 204.679 115.125 205.355 114.871C206.031 114.616 206.752 114.501 207.475 114.531C208.106 114.526 208.734 114.619 209.336 114.809C209.916 114.996 210.462 115.273 210.955 115.63L211.886 114.883H212.711L212.816 119.401H211.948C211.711 118.244 211.124 117.187 210.267 116.371C209.462 115.665 208.417 115.291 207.344 115.328C206.492 115.292 205.652 115.54 204.956 116.031C204.666 116.232 204.429 116.5 204.266 116.811C204.103 117.123 204.018 117.47 204.019 117.821C204.019 118.895 205.167 119.673 207.462 120.197L208.17 120.352C210.31 120.845 211.818 121.555 212.68 122.462C213.606 123.536 214.074 124.927 213.983 126.338C214.01 127.132 213.878 127.923 213.593 128.665C213.309 129.407 212.878 130.085 212.326 130.659C211.789 131.218 211.14 131.66 210.421 131.955C209.702 132.251 208.929 132.394 208.151 132.374C207.392 132.387 206.636 132.289 205.905 132.084C205.253 131.889 204.642 131.58 204.1 131.171L202.89 132.165H201.959ZM215.931 131.967V131.122H218.015V115.692H216.229V114.883H230.498L230.554 119.376H229.679C229.318 118.273 228.709 117.267 227.898 116.432C227.141 115.875 226.208 115.604 225.268 115.667H222.309V122.685H222.544H222.917C223.302 122.712 223.69 122.661 224.055 122.534C224.42 122.406 224.755 122.205 225.038 121.944C225.6 121.268 225.93 120.431 225.981 119.555H226.85V126.838H225.981C225.982 125.917 225.674 125.023 225.107 124.295C224.797 124.017 224.434 123.806 224.039 123.673C223.644 123.54 223.226 123.489 222.811 123.524H222.309V131.091H225.181C226.394 131.164 227.587 130.764 228.506 129.974C229.46 128.92 230.104 127.626 230.368 126.233H231.187L231.007 131.936L215.931 131.967Z" />
            <path d="M233.544 137.349H0.241211V139.528H233.544V137.349Z" />
        </g>       
    </symbol>
</svg>