<svg xmlns="http://www.w3.org/2000/svg">

    <symbol id="instagram" viewBox="0 0 20 20">
        <g>
            <path d="M15.5997 3.76172C15.3552 3.76172 15.1562 3.96069 15.1562 4.20514C15.1562 4.44958 15.3552 4.64856 15.5997 4.64856C15.8443 4.64856 16.0432 4.44974 16.0432 4.20514C16.0432 3.96054 15.8443 3.76172 15.5997 3.76172Z" />
            <path d="M10.0012 5.7041C7.63241 5.7041 5.70508 7.63128 5.70508 10.0002C5.70508 12.369 7.63241 14.2963 10.0012 14.2963C12.3701 14.2963 14.2973 12.369 14.2973 10.0002C14.2973 7.63128 12.3701 5.7041 10.0012 5.7041V5.7041Z" />
            <path d="M14.5862 0H5.41381C2.42858 0 0 2.42858 0 5.41381V14.5863C0 17.5714 2.42858 20 5.41381 20H14.5863C17.5714 20 20 17.5714 20 14.5863V5.41381C20 2.42858 17.5714 0 14.5862 0V0ZM9.99998 15.4686C6.98454 15.4686 4.53139 13.0154 4.53139 9.99998C4.53139 6.98454 6.98454 4.53139 9.99998 4.53139C13.0154 4.53139 15.4686 6.98454 15.4686 9.99998C15.4686 13.0154 13.0154 15.4686 9.99998 15.4686V15.4686ZM15.5993 5.82106C14.7082 5.82106 13.9834 5.09627 13.9834 4.20516C13.9834 3.31405 14.7082 2.58911 15.5993 2.58911C16.4904 2.58911 17.2154 3.31405 17.2154 4.20516C17.2154 5.09627 16.4904 5.82106 15.5993 5.82106Z" />
        </g>
    </symbol>

    <symbol id="email" viewBox="0 0 20 21">
        <g>
            <path d="M19.8234 4.47363L13.7578 10.5002L19.8234 16.5267C19.9331 16.2975 19.9996 16.0441 19.9996 15.7736V5.22672C19.9996 4.95613 19.9331 4.70281 19.8234 4.47363Z" />
            <path d="M18.2433 3.46875H1.75895C1.48836 3.46875 1.23504 3.53527 1.00586 3.64492L8.75832 11.3583C9.44379 12.0438 10.5585 12.0438 11.2439 11.3583L18.9964 3.64492C18.7672 3.53527 18.5139 3.46875 18.2433 3.46875Z" />
            <path d="M0.176172 4.47363C0.0665234 4.70281 0 4.95613 0 5.22672V15.7736C0 16.0442 0.0665234 16.2975 0.176172 16.5267L6.24176 10.5002L0.176172 4.47363Z" />
            <path d="M12.9308 11.3296L12.0725 12.1879C10.9304 13.3301 9.07187 13.3301 7.92973 12.1879L7.07144 11.3296L1.00586 17.3561C1.23504 17.4658 1.48836 17.5323 1.75895 17.5323H18.2433C18.5139 17.5323 18.7672 17.4658 18.9964 17.3561L12.9308 11.3296Z" />
        </g>
    </symbol>

    <symbol id="wathsapp" viewBox="0 0 20 21">
        <g>
            <path d="M10.0025 0.5H9.9975C4.48375 0.5 0 4.985 0 10.5C0 12.6875 0.705 14.715 1.90375 16.3612L0.6575 20.0763L4.50125 18.8475C6.0825 19.895 7.96875 20.5 10.0025 20.5C15.5162 20.5 20 16.0138 20 10.5C20 4.98625 15.5162 0.5 10.0025 0.5ZM15.8212 14.6213C15.58 15.3025 14.6225 15.8675 13.8587 16.0325C13.3363 16.1437 12.6537 16.2325 10.3562 15.28C7.4175 14.0625 5.525 11.0763 5.3775 10.8825C5.23625 10.6887 4.19 9.30125 4.19 7.86625C4.19 6.43125 4.91875 5.7325 5.2125 5.4325C5.45375 5.18625 5.8525 5.07375 6.235 5.07375C6.35875 5.07375 6.47 5.08 6.57 5.085C6.86375 5.0975 7.01125 5.115 7.205 5.57875C7.44625 6.16 8.03375 7.595 8.10375 7.7425C8.175 7.89 8.24625 8.09 8.14625 8.28375C8.0525 8.48375 7.97 8.5725 7.8225 8.7425C7.675 8.9125 7.535 9.0425 7.3875 9.225C7.2525 9.38375 7.1 9.55375 7.27 9.8475C7.44 10.135 8.0275 11.0937 8.8925 11.8637C10.0087 12.8575 10.9137 13.175 11.2375 13.31C11.4787 13.41 11.7662 13.3863 11.9425 13.1988C12.1663 12.9575 12.4425 12.5575 12.7238 12.1638C12.9237 11.8813 13.1763 11.8462 13.4412 11.9462C13.7113 12.04 15.14 12.7462 15.4338 12.8925C15.7275 13.04 15.9212 13.11 15.9925 13.2338C16.0625 13.3575 16.0625 13.9388 15.8212 14.6213Z"/>
        </g>
    </symbol>

    <symbol id="phone" viewBox="0 0 20 20">
        <g>
            <path d="M18.3952 13.1277C17.1707 13.1277 15.9684 12.9362 14.8291 12.5597C14.2708 12.3693 13.5845 12.544 13.2438 12.8939L10.995 14.5915C8.38703 13.1994 6.78057 11.5934 5.40745 9.00505L7.0551 6.81484C7.48318 6.38734 7.63672 5.76286 7.45276 5.17693C7.07464 4.03161 6.88255 2.8299 6.88255 1.6049C6.8826 0.719948 6.16266 0 5.27776 0H1.60484C0.719948 0 0 0.719948 0 1.60484C0 11.7481 8.25198 20 18.3952 20C19.2801 20 20.0001 19.2801 20.0001 18.3952V14.7325C20 13.8477 19.2801 13.1277 18.3952 13.1277Z" />
        </g>
    </symbol>

    <symbol id="clock" viewBox="0 0 20 20">
        <g>
            <path d="M10 0C4.48578 0 0 4.48578 0 10C0 15.5142 4.48578 20 10 20C15.5142 20 20 15.5142 20 10C20 4.48578 15.5142 0 10 0ZM14.7559 15.1724C14.5934 15.3349 14.38 15.4167 14.1667 15.4167C13.9534 15.4167 13.7399 15.3349 13.5776 15.1724L9.41086 11.0059C9.25415 10.8501 9.16672 10.6383 9.16672 10.4167V5C9.16672 4.53918 9.53995 4.16672 10 4.16672C10.4601 4.16672 10.8333 4.53918 10.8333 5V10.0717L14.7559 13.9941C15.0816 14.3201 15.0816 14.8466 14.7559 15.1724V15.1724Z" />
        </g>
    </symbol>

    <symbol id="map" viewBox="0 0 13 20">
        <g>
            <path d="M6.5 0C10.0841 0 13 3.11865 13 6.9519C13 11.7699 6.49361 20 6.49361 20C6.49361 20 2.57831e-07 11.533 2.57831e-07 6.9519C2.57831e-07 3.11865 2.91581 0 6.5 0ZM4.53881 8.98743C5.07959 9.56567 5.78974 9.85486 6.5 9.85486C7.21015 9.85486 7.92053 9.56567 8.46107 8.98743C9.5425 7.83093 9.5425 5.9491 8.46107 4.79248C7.93742 4.23218 7.24085 3.92358 6.5 3.92358C5.75915 3.92358 5.0627 4.2323 4.53881 4.79248C3.45738 5.9491 3.45738 7.83093 4.53881 8.98743Z"/>
        </g>
    </symbol>
    
</svg>